<svg width="16" height="16" viewBox="0 0 16 16" fill="none" xmlns="http://www.w3.org/2000/svg">
<path d="M4.00027 5.05615C3.99851 5.09932 4.00529 5.14242 4.02019 5.18278C4.0351 5.22314 4.05782 5.25991 4.08696 5.29084C4.11609 5.32177 4.15103 5.3462 4.18962 5.36263C4.22821 5.37905 4.26963 5.38713 4.31134 5.38636H5.37621C5.55433 5.38636 5.69632 5.23529 5.71955 5.05214C5.83572 4.17513 6.41655 3.5361 7.45173 3.5361C8.33719 3.5361 9.14778 3.99465 9.14778 5.09759C9.14778 5.94652 8.66504 6.3369 7.9022 6.93048C7.03353 7.58423 6.34556 8.34759 6.39461 9.5869L6.39848 9.87701C6.39984 9.96472 6.43443 10.0484 6.4948 10.1099C6.55517 10.1714 6.63648 10.2059 6.72117 10.2059H7.76797C7.85355 10.2059 7.93563 10.1707 7.99614 10.108C8.05666 10.0453 8.09065 9.9603 8.09065 9.87166V9.73128C8.09065 8.77139 8.44303 8.49198 9.39431 7.74465C10.1804 7.12567 11 6.4385 11 4.99599C11 2.97594 9.35301 2 7.54983 2C5.91445 2 4.1229 2.78877 4.00027 5.05615ZM6.00997 12.7607C6.00997 13.4733 6.55854 14 7.31362 14C8.09969 14 8.64051 13.4733 8.64051 12.7607C8.64051 12.0227 8.0984 11.504 7.31233 11.504C6.55854 11.504 6.00997 12.0227 6.00997 12.7607Z" fill="#DC2626"/>
</svg>
